<svg width="24" height="27" viewBox="0 0 24 27" fill="none" xmlns="http://www.w3.org/2000/svg"><path fill-rule="evenodd" clip-rule="evenodd" d="M16.3103 8.06944C15.9563 8.74044 15.357 9.06985 14.9959 9.10435C14.6349 9.13877 13.9709 8.88964 13.9245 8.45852C13.882 8.06205 15.4662 6.77566 16.4313 6.73515C16.5648 6.72955 16.6716 6.84677 16.6569 6.97827C16.6306 7.21311 16.5506 7.61404 16.3103 8.06944ZM13.5041 8.50979C13.3391 8.9742 12.0042 9.06536 11.6293 8.98094C11.2543 8.8966 10.5448 8.36473 10.2324 7.64405C10.003 7.11438 10.0281 6.67383 10.0676 6.44638C10.0851 6.34548 10.1917 6.27055 10.3105 6.27607C11.7125 6.34125 13.6691 8.0453 13.5041 8.50979ZM23.6559 8.11267C23.2962 7.8948 23.1338 8.36513 22.8554 8.36513C22.7789 7.67237 23.4976 7.18524 23.6151 7.1138C23.7326 7.0422 23.8231 6.59525 23.3033 6.59979C22.9236 6.59979 22.5754 7.14059 22.5754 7.14059C22.5076 6.77408 22.8874 6.43436 22.9914 6.34498C23.2897 6.12151 22.7653 5.77732 22.3993 6.02312C21.9607 6.37632 21.8206 6.85006 21.8206 6.85006C21.7212 6.61757 21.9336 6.14829 21.997 6.00973C22.0602 5.87116 21.8116 5.63429 21.4273 5.99633C20.9753 6.4165 20.8307 7.2031 20.8307 7.2031C19.8492 6.92288 17.7037 6.92888 16.9413 7.24117C16.9413 7.24117 17.496 3.66585 13.6763 1.93355C12.5217 1.40997 11.0527 1.5021 10.1043 2.30956C10.2067 1.93729 10.2473 0.995319 9.91993 0.535294C9.91993 0.535294 8.71001 -0.0639476 7.88841 0.00562026C9.42391 1.53806 9.36447 2.42767 9.33517 3.07408C8.88438 1.42839 7.31309 0.106847 5.56167 0.166268C5.84901 1.06562 5.59115 2.2805 5.59115 2.2805C6.94005 2.07504 8.23107 2.74953 8.7353 4.70636C8.61158 4.95671 8.56183 5.55092 8.68029 5.76368L8.09118 5.34043C6.41653 4.10233 2.8252 2.80335 1.85796 2.71617C0.890637 2.62899 0.131341 3.79711 0.0131247 4.62462C-0.104928 5.45213 0.60035 5.85655 1.0476 6.059C1.49486 6.26145 2.54772 6.65394 2.80394 5.90233C4.94333 6.4553 6.97288 9.10749 6.74351 12.7515C5.52941 14.4869 3.3328 19.7356 5.81551 23.0751C5.29766 24.593 5.22681 26.1883 5.93381 26.4182C6.56487 26.6013 8.44985 22.7893 8.58244 22.1337C8.27934 19.7454 9.67175 18.1563 11.8976 17.4726C12.5796 18.1375 12.7106 20.0837 12.777 20.8142C12.8432 21.5448 13.2615 21.4125 13.4226 21.2814C15.1559 19.9514 16.9651 18.9305 17.1735 18.8556C18.0733 18.3405 18.1302 17.7598 17.2587 17.7223C16.3873 17.6849 15.6043 17.8347 15.6043 17.8347C16.9587 15.6338 19.1815 12.7331 15.8473 13.1423C16.4399 10.992 18.6557 8.92711 22.194 9.21813C23.6307 9.25027 24.0155 8.33063 23.6559 8.11267Z"></path></svg>